<svg width="294" height="5500" viewBox="0 0 294 5500" fill="none" xmlns="http://www.w3.org/2000/svg">
<g clip-path="url(#clip0_438_109)">
<path d="M-57.0923 4754.75C3.55105 4836.18 151.883 4907.52 364.146 4843.44" stroke="#282F39" stroke-width="6"/>
<path d="M102.24 4444.13C161.107 4522.88 319.807 4651.78 316.74 4475" stroke="#282F39" stroke-width="11"/>
<path d="M123.74 4443.5C200.689 4486.84 260.24 4507 306.74 4461" stroke="#282F39" stroke-width="7"/>
<path d="M74.5786 4394.24L336.558 4375L337.545 4408.71L75.078 4411.28L87.2402 4405.5L74.5786 4394.24Z" fill="#282F39"/>
<path d="M340.039 4427.61L-45.7054 4459.51L-47.0005 4439.55L339.384 4417.52L340.039 4427.61Z" fill="#282F39"/>
<path d="M-72 3271.63L-47.5813 3232L159.914 3359.86L367.41 3487.72L342.991 3527.35L138.946 3382.45L-72 3271.63Z" fill="#282F39"/>
<rect x="-47" y="2883.89" width="386" height="24.472" transform="rotate(-9.99758 -47 2883.89)" fill="#282F39"/>
<rect x="-43.0215" y="2817.01" width="386" height="24.472" transform="rotate(-9.99758 -43.0215 2817.01)" fill="#282F39"/>
<rect x="21.4531" y="2825.39" width="60" height="13" transform="rotate(93.4041 21.4531 2825.39)" fill="#282F39"/>
<rect x="58.6543" y="2816.58" width="59.9541" height="11.6134" transform="rotate(93.4041 58.6543 2816.58)" fill="#282F39"/>
<rect x="86.5273" y="2809.22" width="60" height="7" transform="rotate(93.4041 86.5273 2809.22)" fill="#282F39"/>
<rect x="133.041" y="2801.97" width="60" height="15" transform="rotate(93.4041 133.041 2801.97)" fill="#282F39"/>
<rect x="177.379" y="2797.6" width="60" height="8" transform="rotate(93.4041 177.379 2797.6)" fill="#282F39"/>
<rect x="225.246" y="2784.42" width="60" height="6" transform="rotate(93.4041 225.246 2784.42)" fill="#282F39"/>
<rect x="245.822" y="2785.64" width="59.9541" height="11.6134" transform="rotate(93.4041 245.822 2785.64)" fill="#282F39"/>
<rect x="-32.7441" y="2509.48" width="386" height="47" transform="rotate(-23.0967 -32.7441 2509.48)" fill="#282F39"/>
<rect x="-46" y="2481.37" width="406.25" height="13.3218" transform="rotate(-23.0967 -46 2481.37)" fill="#282F39"/>
<path d="M369.707 1518.21C236.168 1539.45 -3.4375 1502 -43.4375 1334" stroke="#282F39" stroke-width="11"/>
<path d="M354.647 1508.12C235.795 1572.6 -86.6671 1590.57 -59.0216 1415.88" stroke="#282F39" stroke-width="11"/>
<path d="M330.555 1182L340.341 1227.51L152.063 1268L-36.2145 1308.48L-46.0005 1262.98L150.343 1237.44L330.555 1182Z" fill="#282F39"/>
<rect x="349.943" y="611.432" width="41" height="354" transform="rotate(93.633 349.943 611.432)" fill="#282F39"/>
<path d="M-0.5 673.176C64.5 751.676 252.386 809.395 249 633.176" stroke="#282F39" stroke-width="11"/>
<path d="M-57.8113 704.807C27.3067 748.148 247.169 747.358 216.103 616.842" stroke="#282F39" stroke-width="7"/>
<path d="M331.799 0L-51.0009 66.821L-37.8148 147.678L340.605 81.6218L331.799 0Z" fill="#282F39"/>
<path d="M324.672 147.652L-17.3542 154.406L-16.7118 189.232L321.401 182.556L324.672 147.652Z" fill="#282F39"/>
<rect width="12.9867" height="99.9886" transform="matrix(-0.998151 -0.0607747 -0.0567916 0.998386 231.762 71.7969)" fill="#282F39"/>
<rect width="6.54746" height="99.9611" transform="matrix(-0.993646 -0.112548 -0.105232 0.994448 171.137 76.6172)" fill="#282F39"/>
<rect width="6.08367" height="99.6368" transform="matrix(-0.939617 -0.342227 -0.322131 0.946695 108.729 87.1758)" fill="#282F39"/>
<rect width="14.6018" height="99.988" transform="matrix(-0.998041 -0.0625673 -0.0584675 0.998289 27.2637 83.6719)" fill="#282F39"/>
<rect width="13.7998" height="99.8467" transform="matrix(-0.974836 -0.222925 -0.208927 0.977931 294.062 70.8027)" fill="#282F39"/>
<rect x="285.549" y="2774.96" width="60" height="8" transform="rotate(93.4041 285.549 2774.96)" fill="#282F39"/>
</g>
<defs>
<clipPath id="clip0_438_109">
<rect width="294" height="5500" fill="white"/>
</clipPath>
</defs>
</svg>
