<svg width="447" height="3663" viewBox="0 0 447 3663" fill="none" xmlns="http://www.w3.org/2000/svg">
<path d="M18.9057 3487.75C79.5491 3569.18 227.881 3640.52 440.144 3576.44" stroke="#282F39" stroke-width="6"/>
<path d="M178.242 2877.13C237.109 2955.88 395.809 3084.78 392.742 2908" stroke="#282F39" stroke-width="11"/>
<path d="M199.742 2876.5C276.691 2919.84 336.242 2940 382.742 2894" stroke="#282F39" stroke-width="7"/>
<path d="M150.581 2827.24L412.56 2808L413.547 2841.71L151.08 2844.28L163.242 2838.5L150.581 2827.24Z" fill="#282F39"/>
<path d="M416.041 2860.61L30.2965 2892.51L29.0015 2872.55L415.386 2850.52L416.041 2860.61Z" fill="#282F39"/>
<path d="M4 2371.63L28.4187 2332L235.914 2459.86L443.41 2587.72L418.991 2627.35L214.946 2482.45L4 2371.63Z" fill="#282F39"/>
<rect x="29" y="2242.89" width="386" height="24.472" transform="rotate(-9.99758 29 2242.89)" fill="#282F39"/>
<rect x="32.9766" y="2176.01" width="386" height="24.472" transform="rotate(-9.99758 32.9766 2176.01)" fill="#282F39"/>
<rect x="97.4531" y="2184.39" width="60" height="13" transform="rotate(93.4041 97.4531 2184.39)" fill="#282F39"/>
<rect x="134.656" y="2175.58" width="59.9541" height="11.6134" transform="rotate(93.4041 134.656 2175.58)" fill="#282F39"/>
<rect x="162.527" y="2168.22" width="60" height="7" transform="rotate(93.4041 162.527 2168.22)" fill="#282F39"/>
<rect x="209.039" y="2160.97" width="60" height="15" transform="rotate(93.4041 209.039 2160.97)" fill="#282F39"/>
<rect x="253.379" y="2156.6" width="60" height="8" transform="rotate(93.4041 253.379 2156.6)" fill="#282F39"/>
<rect x="301.246" y="2143.42" width="60" height="6" transform="rotate(93.4041 301.246 2143.42)" fill="#282F39"/>
<rect x="321.82" y="2144.64" width="59.9541" height="11.6134" transform="rotate(93.4041 321.82 2144.64)" fill="#282F39"/>
<rect x="377.945" y="2133.96" width="60" height="8" transform="rotate(93.4041 377.945 2133.96)" fill="#282F39"/>
<rect x="43.2578" y="1506.14" width="386" height="47" transform="rotate(-23.0967 43.2578 1506.14)" fill="#282F39"/>
<rect x="30" y="1478.03" width="406.25" height="13.3218" transform="rotate(-23.0967 30 1478.03)" fill="#282F39"/>
<path d="M445.707 1114.71C312.168 1135.95 72.5625 1098.5 32.5625 930.5" stroke="#282F39" stroke-width="11"/>
<path d="M430.647 1104.62C311.795 1169.1 -10.6671 1187.08 16.9784 1012.38" stroke="#282F39" stroke-width="11"/>
<path d="M406.555 686.344L416.341 731.85L228.063 772.339L39.7855 812.827L29.9995 767.321L226.343 741.786L406.555 686.344Z" fill="#282F39"/>
<rect x="425.945" y="348.432" width="41" height="354" transform="rotate(93.633 425.945 348.432)" fill="#282F39"/>
<rect x="434.492" y="448.596" width="16.9793" height="123.726" transform="rotate(135 434.492 448.596)" fill="#282F39"/>
<path d="M75.5 410.176C140.5 488.676 328.386 546.395 325 370.176" stroke="#282F39" stroke-width="11"/>
<path d="M18.1887 441.807C103.307 485.148 323.169 484.358 292.103 353.842" stroke="#282F39" stroke-width="7"/>
<path d="M407.801 0L25.001 66.821L38.1872 147.678L416.607 81.6218L407.801 0Z" fill="#282F39"/>
<path d="M400.672 147.652L58.6458 154.406L59.2882 189.232L397.401 182.556L400.672 147.652Z" fill="#282F39"/>
<rect width="13.7998" height="99.8467" transform="matrix(-0.974836 -0.222925 -0.208927 0.977931 370.062 70.8027)" fill="#282F39"/>
<rect width="12.9867" height="99.9886" transform="matrix(-0.998151 -0.0607747 -0.0567916 0.998386 307.762 71.7969)" fill="#282F39"/>
<rect width="6.54746" height="99.9611" transform="matrix(-0.993646 -0.112548 -0.105232 0.994448 247.137 76.6172)" fill="#282F39"/>
<rect width="6.08367" height="99.6368" transform="matrix(-0.939617 -0.342227 -0.322131 0.946695 184.73 87.1758)" fill="#282F39"/>
<rect width="14.6018" height="99.988" transform="matrix(-0.998041 -0.0625673 -0.0584675 0.998289 103.266 83.6719)" fill="#282F39"/>
</svg>
